<svg width="32" height="32" viewBox="0 0 32 32" fill="none" xmlns="http://www.w3.org/2000/svg">
<path d="M2 5.65508C3.76996 4.91554 6.3078 4.11883 8.77536 3.86994C11.436 3.60158 13.6928 3.99611 15 5.37335V24.8651C13.1302 23.805 10.7613 23.6595 8.57464 23.88C6.21386 24.1182 3.83541 24.8022 2 25.502V5.65508ZM17 5.37335C18.3072 3.99611 20.564 3.60158 23.2246 3.86994C25.6922 4.11883 28.23 4.91554 30 5.65508V25.502C28.1646 24.8022 25.7861 24.1182 23.4254 23.88C21.2387 23.6595 18.8698 23.805 17 24.8651V5.37335ZM16 3.56606C14.0302 1.87287 11.1737 1.61789 8.57464 1.88004C5.54643 2.18548 2.48917 3.22463 0.586197 4.08962C0.229203 4.25189 0 4.60784 0 4.99999V27C0 27.34 0.172752 27.6567 0.458614 27.8408C0.744476 28.0248 1.10428 28.0511 1.4138 27.9104C3.17749 27.1087 6.02023 26.1478 8.77536 25.8699C11.5913 25.5859 13.9549 26.0444 15.2191 27.6247C15.4089 27.8619 15.6962 28 16 28C16.3038 28 16.5911 27.8619 16.7809 27.6247C18.0451 26.0444 20.4087 25.5859 23.2246 25.8699C25.9798 26.1478 28.8225 27.1087 30.5862 27.9104C30.8957 28.0511 31.2555 28.0248 31.5414 27.8408C31.8272 27.6567 32 27.34 32 27V4.99999C32 4.60784 31.7708 4.25189 31.4138 4.08962C29.5108 3.22463 26.4536 2.18548 23.4254 1.88004C20.8263 1.61789 17.9698 1.87287 16 3.56606Z" fill="#694F8E"/>
</svg>
