<svg width="32" height="32" viewBox="0 0 32 32" fill="none" xmlns="http://www.w3.org/2000/svg">
<path d="M10 0C10.5523 0 11 0.447715 11 1V4H13V1C13 0.447715 13.4477 0 14 0C14.5523 0 15 0.447715 15 1V4H17V1C17 0.447715 17.4477 0 18 0C18.5523 0 19 0.447715 19 1V4H21V1C21 0.447715 21.4477 0 22 0C22.5523 0 23 0.447715 23 1V4C25.7614 4 28 6.23858 28 9H31C31.5523 9 32 9.44771 32 10C32 10.5523 31.5523 11 31 11H28V13H31C31.5523 13 32 13.4477 32 14C32 14.5523 31.5523 15 31 15H28V17H31C31.5523 17 32 17.4477 32 18C32 18.5523 31.5523 19 31 19H28V21H31C31.5523 21 32 21.4477 32 22C32 22.5523 31.5523 23 31 23H28C28 25.7614 25.7614 28 23 28V31C23 31.5523 22.5523 32 22 32C21.4477 32 21 31.5523 21 31V28H19V31C19 31.5523 18.5523 32 18 32C17.4477 32 17 31.5523 17 31V28H15V31C15 31.5523 14.5523 32 14 32C13.4477 32 13 31.5523 13 31V28H11V31C11 31.5523 10.5523 32 10 32C9.44771 32 9 31.5523 9 31V28C6.23858 28 4 25.7614 4 23H1C0.447715 23 0 22.5523 0 22C0 21.4477 0.447715 21 1 21H4V19H1C0.447715 19 0 18.5523 0 18C0 17.4477 0.447715 17 1 17H4V15H1C0.447715 15 0 14.5523 0 14C0 13.4477 0.447715 13 1 13H4V11H1C0.447715 11 0 10.5523 0 10C0 9.44771 0.447715 9 1 9H4C4 6.23858 6.23858 4 9 4V1C9 0.447715 9.44771 0 10 0ZM9 6C7.34315 6 6 7.34315 6 9V23C6 24.6569 7.34315 26 9 26H23C24.6569 26 26 24.6569 26 23V9C26 7.34315 24.6569 6 23 6H9ZM10 13C10 11.3431 11.3431 10 13 10H19C20.6569 10 22 11.3431 22 13V19C22 20.6569 20.6569 22 19 22H13C11.3431 22 10 20.6569 10 19V13ZM13 12C12.4477 12 12 12.4477 12 13V19C12 19.5523 12.4477 20 13 20H19C19.5523 20 20 19.5523 20 19V13C20 12.4477 19.5523 12 19 12H13Z" fill="#694F8E"/>
</svg>
