<svg width="32" height="32" viewBox="0 0 32 32" fill="none" xmlns="http://www.w3.org/2000/svg">
<path d="M28 2C29.1046 2 30 2.89543 30 4V28C30 29.1046 29.1046 30 28 30H4C2.89543 30 2 29.1046 2 28V4C2 2.89543 2.89543 2 4 2H28ZM4 0C1.79086 0 0 1.79086 0 4V28C0 30.2091 1.79086 32 4 32H28C30.2091 32 32 30.2091 32 28V4C32 1.79086 30.2091 0 28 0H4Z" fill="#694F8E"/>
<path d="M11 24C11 25.6569 9.65685 27 8 27C6.34315 27 5 25.6569 5 24C5 22.3431 6.34315 21 8 21C9.65685 21 11 22.3431 11 24Z" fill="#694F8E"/>
<path d="M5 7C5 5.89543 5.89543 5 7 5C18.0457 5 27 13.9543 27 25C27 26.1046 26.1046 27 25 27C23.8954 27 23 26.1046 23 25C23 16.1634 15.8366 9 7 9C5.89543 9 5 8.10457 5 7ZM5 15C5 13.8954 5.89543 13 7 13C13.6274 13 19 18.3726 19 25C19 26.1046 18.1046 27 17 27C15.8954 27 15 26.1046 15 25C15 20.5817 11.4183 17 7 17C5.89543 17 5 16.1046 5 15Z" fill="#694F8E"/>
</svg>
